<svg width="30" height="30" viewBox="0 0 30 30" fill="none" xmlns="http://www.w3.org/2000/svg">
<path fill-rule="evenodd" clip-rule="evenodd" d="M12.8802 23.4551C12.2241 23.4551 11.7251 24.0668 12.0684 24.6259C12.6729 25.6108 13.7597 26.2676 15.0001 26.2676C16.2404 26.2676 17.3272 25.6108 17.9319 24.6259C18.2751 24.0668 17.7761 23.4551 17.12 23.4551C16.7024 23.4551 16.3437 23.7301 16.0297 24.0054C15.7549 24.2465 15.3945 24.3926 15.0001 24.3926C14.6056 24.3926 14.2454 24.2465 13.9704 24.0054C13.6565 23.7301 13.2977 23.4551 12.8802 23.4551Z" fill="#2C296B"/>
<mask id="mask0_115_72" style="mask-type:alpha" maskUnits="userSpaceOnUse" x="4" y="2" width="22" height="21">
<path fill-rule="evenodd" clip-rule="evenodd" d="M24.375 13.5625C24.375 9.82706 22.5209 6.33523 19.4264 4.24291L17.8006 3.14364C16.1088 1.99969 13.8912 1.99969 12.1994 3.14364L10.5736 4.2429C7.47913 6.33523 5.625 9.82705 5.625 13.5625V15.9549C4.85781 16.6415 4.375 17.6394 4.375 18.75C4.375 20.8211 6.05394 22.5 8.125 22.5H21.875C23.9461 22.5 25.625 20.8211 25.625 18.75C25.625 17.6394 25.1421 16.6415 24.375 15.9549V13.5625Z" fill="white"/>
</mask>
<g mask="url(#mask0_115_72)">
<path d="M19.4264 4.24294L18.3761 5.7962L19.4264 4.24294ZM24.375 13.5625H26.25H24.375ZM17.8006 3.14366L18.8509 1.5904L17.8006 3.14366ZM12.1994 3.14366L11.1491 1.5904L12.1994 3.14366ZM10.5736 4.24293L11.6238 5.7962L10.5736 4.24293ZM5.625 13.5625H7.5H5.625ZM5.625 15.9549L6.87546 17.352L7.5 16.793V15.9549H5.625ZM24.375 15.9549H22.5V16.793L23.1245 17.352L24.375 15.9549ZM18.3761 5.7962C20.9549 7.53979 22.5 10.4497 22.5 13.5625H26.25C26.25 9.20452 24.0869 5.1307 20.4766 2.68966L18.3761 5.7962ZM16.7504 4.69693L18.3761 5.7962L20.4766 2.68966L18.8509 1.5904L16.7504 4.69693ZM13.2496 4.69693C14.307 3.98197 15.693 3.98197 16.7504 4.69693L18.8509 1.5904C16.5245 0.0174735 13.4755 0.0174731 11.1491 1.5904L13.2496 4.69693ZM11.6238 5.7962L13.2496 4.69693L11.1491 1.5904L9.52335 2.68966L11.6238 5.7962ZM7.5 13.5625C7.5 10.4497 9.0451 7.53979 11.6238 5.7962L9.52335 2.68966C5.91314 5.1307 3.75 9.20452 3.75 13.5625H7.5ZM7.5 15.9549V13.5625H3.75V15.9549H7.5ZM6.25 18.75C6.25 18.1949 6.48888 17.698 6.87546 17.352L4.37454 14.5578C3.22675 15.585 2.5 17.0839 2.5 18.75H6.25ZM8.125 20.625C7.08946 20.625 6.25 19.7855 6.25 18.75H2.5C2.5 21.8566 5.0184 24.375 8.125 24.375V20.625ZM21.875 20.625H8.125V24.375H21.875V20.625ZM23.75 18.75C23.75 19.7855 22.9105 20.625 21.875 20.625V24.375C24.9816 24.375 27.5 21.8566 27.5 18.75H23.75ZM23.1245 17.352C23.5111 17.698 23.75 18.1949 23.75 18.75H27.5C27.5 17.0839 26.7733 15.585 25.6255 14.5578L23.1245 17.352ZM22.5 13.5625V15.9549H26.25V13.5625H22.5Z" fill="#2C296B"/>
</g>
</svg>
