<svg width="43" height="43" viewBox="0 0 43 43" fill="none" xmlns="http://www.w3.org/2000/svg">
<rect width="43" height="43" rx="21.5" fill="black"/>
<path fill-rule="evenodd" clip-rule="evenodd" d="M33.4372 5.02762C35.1234 5.55051 34.3659 15.5993 33.6977 19.4186C34.533 20.8526 35 22.4542 35 24.1439C35 30.2809 28.8405 35.2559 21.2424 35.2559C13.6442 35.2559 7.48471 30.2809 7.48471 24.1439C7.48471 21.8367 8.35534 19.6936 9.84573 17.9175C7.33133 14.7739 4.18681 10.0867 5.19254 9.00679C6.35735 7.75612 14.5546 11.5735 17.6523 13.4141C18.7968 13.1649 20.0003 13.032 21.2424 13.032C23.0255 13.032 24.7294 13.306 26.293 13.8047C28.3893 9.99295 31.9501 4.56646 33.4372 5.02762Z" fill="#FFE312"/>
<path d="M18.4598 25.8816C17.7574 25.9437 17.2101 26.5438 17.342 27.2365C17.3881 27.4787 17.4479 27.7167 17.5211 27.9484C17.7156 28.5648 18.0007 29.1248 18.3601 29.5965C18.7195 30.0683 19.1461 30.4425 19.6157 30.6978C20.0853 30.9531 20.5886 31.0845 21.0969 31.0845C21.6051 31.0845 22.1084 30.9531 22.578 30.6978C23.0476 30.4425 23.4743 30.0683 23.8337 29.5965C24.1931 29.1248 24.4782 28.5648 24.6727 27.9484C24.7468 27.7135 24.8072 27.4722 24.8536 27.2266C24.9837 26.5379 24.4426 25.9395 23.7447 25.8754C22.7922 25.7879 21.9517 25.746 21.0969 25.7487C20.2695 25.7514 19.4287 25.7959 18.4598 25.8816Z" fill="#ED653B"/>
<path fill-rule="evenodd" clip-rule="evenodd" d="M18.3541 29.5887C18.3561 29.5913 18.3581 29.5939 18.3601 29.5965C18.7195 30.0683 19.1462 30.4425 19.6157 30.6978C20.0853 30.9531 20.5886 31.0845 21.0969 31.0845C21.6052 31.0845 22.1085 30.9531 22.578 30.6978C23.0476 30.4425 23.4743 30.0683 23.8337 29.5965C23.893 29.5187 23.9503 29.4384 24.0055 29.3559C23.5473 28.0915 22.4717 27.2039 21.2179 27.2039C19.8884 27.2039 18.7593 28.2018 18.3541 29.5887Z" fill="#FEB1AA"/>
<ellipse cx="1.24852" cy="0.36381" rx="1.24852" ry="0.36381" transform="matrix(-1 0 0 1 22.4702 23.2932)" fill="#323232"/>
<ellipse cx="2.49705" cy="2.78921" rx="2.49705" ry="2.78921" transform="matrix(-1 0 0 1 30.4608 18.9275)" fill="#323232"/>
<ellipse cx="1.12367" cy="1.2127" rx="1.12367" ry="1.2127" transform="matrix(-1 0 0 1 28.3507 19.4126)" fill="white"/>
<ellipse cx="0.374557" cy="0.36381" rx="0.374557" ry="0.36381" transform="matrix(-1 0 0 1 29.3495 21.1104)" fill="white"/>
<ellipse cx="0.249705" cy="0.24254" rx="0.249705" ry="0.24254" transform="matrix(-1 0 0 1 28.6003 21.838)" fill="white"/>
<ellipse cx="14.4798" cy="21.7167" rx="2.49705" ry="2.78921" fill="#323232"/>
<ellipse cx="15.2166" cy="20.6253" rx="1.12367" ry="1.2127" fill="white"/>
<ellipse cx="13.4687" cy="21.4742" rx="0.374557" ry="0.36381" fill="white"/>
<ellipse cx="14.0931" cy="22.0806" rx="0.249705" ry="0.24254" fill="white"/>
<path fill-rule="evenodd" clip-rule="evenodd" d="M29.0046 33.3195C31.9536 31.6888 34.0766 29.1547 34.7623 26.211C33.9102 25.4545 32.763 24.991 31.5013 24.991C28.8711 24.991 26.739 27.0047 26.739 29.4887C26.739 31.108 27.6451 32.5275 29.0046 33.3195Z" fill="#ED653B"/>
<path fill-rule="evenodd" clip-rule="evenodd" d="M13.2016 33.1614C14.4193 32.3467 15.2141 31.0054 15.2141 29.4887C15.2141 27.0047 13.082 24.9911 10.4518 24.9911C9.40304 24.9911 8.43341 25.3113 7.6466 25.8538C8.22047 28.8549 10.2811 31.4595 13.2016 33.1614Z" fill="#ED653B"/>
<ellipse cx="0.49941" cy="0.48508" rx="0.49941" ry="0.48508" transform="matrix(-0.939693 0.34202 0.34202 0.939693 29.5052 26.5267)" fill="white" fill-opacity="0.35"/>
<ellipse cx="0.749114" cy="0.72762" rx="0.749114" ry="0.72762" transform="matrix(-0.939693 0.34202 0.34202 0.939693 30.8585 27.3246)" fill="white" fill-opacity="0.35"/>
<ellipse cx="12.9922" cy="27.1533" rx="0.49941" ry="0.48508" transform="rotate(20 12.9922 27.1533)" fill="white" fill-opacity="0.35"/>
<ellipse cx="11.7904" cy="28.2646" rx="0.749114" ry="0.72762" transform="rotate(20 11.7904 28.2646)" fill="white" fill-opacity="0.35"/>
<path fill-rule="evenodd" clip-rule="evenodd" d="M34.1599 15.8024C34.5889 11.3179 34.718 5.42473 33.4372 5.02756C32.4839 4.73192 30.6783 6.85594 28.9527 9.42302C31.6006 10.326 33.6538 12.7631 34.1599 15.8024Z" fill="#323232"/>
<path fill-rule="evenodd" clip-rule="evenodd" d="M10.5225 9.98197C8.79554 11.5462 8.22711 14.3361 9.16395 17.0468C6.80527 13.9696 4.276 9.9907 5.19239 9.00676C5.76161 8.39558 8.01024 8.9947 10.5225 9.98197Z" fill="#323232"/>
</svg>
